<mxfile host="app.diagrams.net" modified="2023-05-13T19:55:14.986Z" agent="Mozilla/5.0 (Windows NT 10.0; Win64; x64; rv:109.0) Gecko/20100101 Firefox/114.0" etag="xP5DmsZAWVvHbtzt0CzZ" version="21.3.0" type="device">
  <diagram id="C5RBs43oDa-KdzZeNtuy" name="Page-1">
    <mxGraphModel dx="3790" dy="2286" grid="1" gridSize="10" guides="1" tooltips="1" connect="1" arrows="1" fold="1" page="1" pageScale="1" pageWidth="827" pageHeight="1169" math="0" shadow="0">
      <root>
        <mxCell id="WIyWlLk6GJQsqaUBKTNV-0" />
        <mxCell id="WIyWlLk6GJQsqaUBKTNV-1" parent="WIyWlLk6GJQsqaUBKTNV-0" />
        <mxCell id="zkfFHV4jXpPFQw0GAbJ--13" value="Mesa" style="swimlane;fontStyle=0;align=center;verticalAlign=top;childLayout=stackLayout;horizontal=1;startSize=26;horizontalStack=0;resizeParent=1;resizeLast=0;collapsible=1;marginBottom=0;rounded=0;shadow=0;strokeWidth=1;" parent="WIyWlLk6GJQsqaUBKTNV-1" vertex="1">
          <mxGeometry x="30" y="186" width="200" height="154" as="geometry">
            <mxRectangle x="30" y="186" width="170" height="26" as="alternateBounds" />
          </mxGeometry>
        </mxCell>
        <mxCell id="zkfFHV4jXpPFQw0GAbJ--14" value="- id: integer&#xa;" style="text;align=left;verticalAlign=top;spacingLeft=4;spacingRight=4;overflow=hidden;rotatable=0;points=[[0,0.5],[1,0.5]];portConstraint=eastwest;" parent="zkfFHV4jXpPFQw0GAbJ--13" vertex="1">
          <mxGeometry y="26" width="200" height="26" as="geometry" />
        </mxCell>
        <mxCell id="zkfFHV4jXpPFQw0GAbJ--15" value="&lt;div&gt;&lt;br&gt;&lt;/div&gt;&lt;div&gt;&lt;br&gt;&lt;/div&gt;" style="line;html=1;strokeWidth=1;align=left;verticalAlign=middle;spacingTop=-1;spacingLeft=3;spacingRight=3;rotatable=0;labelPosition=right;points=[];portConstraint=eastwest;" parent="zkfFHV4jXpPFQw0GAbJ--13" vertex="1">
          <mxGeometry y="52" width="200" height="8" as="geometry" />
        </mxCell>
        <mxCell id="QxNiOy2woBjy3pgb3Xe6-4" value="- numero_integrantes: integer" style="text;strokeColor=none;fillColor=none;align=left;verticalAlign=top;spacingLeft=4;spacingRight=4;overflow=hidden;rotatable=0;points=[[0,0.5],[1,0.5]];portConstraint=eastwest;whiteSpace=wrap;html=1;" vertex="1" parent="zkfFHV4jXpPFQw0GAbJ--13">
          <mxGeometry y="60" width="200" height="26" as="geometry" />
        </mxCell>
        <mxCell id="QxNiOy2woBjy3pgb3Xe6-6" value="&lt;div&gt;&lt;br&gt;&lt;/div&gt;&lt;div&gt;&lt;br&gt;&lt;/div&gt;" style="line;html=1;strokeWidth=1;align=left;verticalAlign=middle;spacingTop=-1;spacingLeft=3;spacingRight=3;rotatable=0;labelPosition=right;points=[];portConstraint=eastwest;" vertex="1" parent="zkfFHV4jXpPFQw0GAbJ--13">
          <mxGeometry y="86" width="200" height="8" as="geometry" />
        </mxCell>
        <mxCell id="QxNiOy2woBjy3pgb3Xe6-5" value="- consumo_total: float" style="text;strokeColor=none;fillColor=none;align=left;verticalAlign=top;spacingLeft=4;spacingRight=4;overflow=hidden;rotatable=0;points=[[0,0.5],[1,0.5]];portConstraint=eastwest;whiteSpace=wrap;html=1;" vertex="1" parent="zkfFHV4jXpPFQw0GAbJ--13">
          <mxGeometry y="94" width="200" height="26" as="geometry" />
        </mxCell>
        <mxCell id="QxNiOy2woBjy3pgb3Xe6-8" value="&lt;div&gt;&lt;br&gt;&lt;/div&gt;&lt;div&gt;&lt;br&gt;&lt;/div&gt;" style="line;html=1;strokeWidth=1;align=left;verticalAlign=middle;spacingTop=-1;spacingLeft=3;spacingRight=3;rotatable=0;labelPosition=right;points=[];portConstraint=eastwest;" vertex="1" parent="zkfFHV4jXpPFQw0GAbJ--13">
          <mxGeometry y="120" width="200" height="8" as="geometry" />
        </mxCell>
        <mxCell id="QxNiOy2woBjy3pgb3Xe6-7" value="- pago: bool" style="text;strokeColor=none;fillColor=none;align=left;verticalAlign=top;spacingLeft=4;spacingRight=4;overflow=hidden;rotatable=0;points=[[0,0.5],[1,0.5]];portConstraint=eastwest;whiteSpace=wrap;html=1;" vertex="1" parent="zkfFHV4jXpPFQw0GAbJ--13">
          <mxGeometry y="128" width="200" height="26" as="geometry" />
        </mxCell>
        <mxCell id="QxNiOy2woBjy3pgb3Xe6-9" value="Cardapio" style="swimlane;fontStyle=1;align=center;verticalAlign=top;childLayout=stackLayout;horizontal=1;startSize=26;horizontalStack=0;resizeParent=1;resizeParentMax=0;resizeLast=0;collapsible=1;marginBottom=0;whiteSpace=wrap;html=1;" vertex="1" parent="WIyWlLk6GJQsqaUBKTNV-1">
          <mxGeometry x="600" y="236" width="160" height="52" as="geometry" />
        </mxCell>
        <mxCell id="QxNiOy2woBjy3pgb3Xe6-10" value="- List&amp;lt;Prato&amp;gt;" style="text;strokeColor=none;fillColor=none;align=left;verticalAlign=top;spacingLeft=4;spacingRight=4;overflow=hidden;rotatable=0;points=[[0,0.5],[1,0.5]];portConstraint=eastwest;whiteSpace=wrap;html=1;" vertex="1" parent="QxNiOy2woBjy3pgb3Xe6-9">
          <mxGeometry y="26" width="160" height="26" as="geometry" />
        </mxCell>
        <mxCell id="QxNiOy2woBjy3pgb3Xe6-13" value="Prato" style="swimlane;fontStyle=1;align=center;verticalAlign=top;childLayout=stackLayout;horizontal=1;startSize=26;horizontalStack=0;resizeParent=1;resizeParentMax=0;resizeLast=0;collapsible=1;marginBottom=0;whiteSpace=wrap;html=1;" vertex="1" parent="WIyWlLk6GJQsqaUBKTNV-1">
          <mxGeometry x="600" y="-66" width="160" height="154" as="geometry">
            <mxRectangle x="480" y="480" width="70" height="30" as="alternateBounds" />
          </mxGeometry>
        </mxCell>
        <mxCell id="QxNiOy2woBjy3pgb3Xe6-14" value="- id: integer" style="text;strokeColor=none;fillColor=none;align=left;verticalAlign=top;spacingLeft=4;spacingRight=4;overflow=hidden;rotatable=0;points=[[0,0.5],[1,0.5]];portConstraint=eastwest;whiteSpace=wrap;html=1;" vertex="1" parent="QxNiOy2woBjy3pgb3Xe6-13">
          <mxGeometry y="26" width="160" height="26" as="geometry" />
        </mxCell>
        <mxCell id="QxNiOy2woBjy3pgb3Xe6-15" value="" style="line;strokeWidth=1;fillColor=none;align=left;verticalAlign=middle;spacingTop=-1;spacingLeft=3;spacingRight=3;rotatable=0;labelPosition=right;points=[];portConstraint=eastwest;strokeColor=inherit;" vertex="1" parent="QxNiOy2woBjy3pgb3Xe6-13">
          <mxGeometry y="52" width="160" height="8" as="geometry" />
        </mxCell>
        <mxCell id="QxNiOy2woBjy3pgb3Xe6-16" value="&lt;div&gt;- nome: string&lt;/div&gt;" style="text;strokeColor=none;fillColor=none;align=left;verticalAlign=top;spacingLeft=4;spacingRight=4;overflow=hidden;rotatable=0;points=[[0,0.5],[1,0.5]];portConstraint=eastwest;whiteSpace=wrap;html=1;" vertex="1" parent="QxNiOy2woBjy3pgb3Xe6-13">
          <mxGeometry y="60" width="160" height="26" as="geometry" />
        </mxCell>
        <mxCell id="QxNiOy2woBjy3pgb3Xe6-20" value="" style="line;strokeWidth=1;fillColor=none;align=left;verticalAlign=middle;spacingTop=-1;spacingLeft=3;spacingRight=3;rotatable=0;labelPosition=right;points=[];portConstraint=eastwest;strokeColor=inherit;" vertex="1" parent="QxNiOy2woBjy3pgb3Xe6-13">
          <mxGeometry y="86" width="160" height="8" as="geometry" />
        </mxCell>
        <mxCell id="QxNiOy2woBjy3pgb3Xe6-17" value="- categoria: string" style="text;strokeColor=none;fillColor=none;align=left;verticalAlign=top;spacingLeft=4;spacingRight=4;overflow=hidden;rotatable=0;points=[[0,0.5],[1,0.5]];portConstraint=eastwest;whiteSpace=wrap;html=1;" vertex="1" parent="QxNiOy2woBjy3pgb3Xe6-13">
          <mxGeometry y="94" width="160" height="26" as="geometry" />
        </mxCell>
        <mxCell id="QxNiOy2woBjy3pgb3Xe6-21" value="" style="line;strokeWidth=1;fillColor=none;align=left;verticalAlign=middle;spacingTop=-1;spacingLeft=3;spacingRight=3;rotatable=0;labelPosition=right;points=[];portConstraint=eastwest;strokeColor=inherit;" vertex="1" parent="QxNiOy2woBjy3pgb3Xe6-13">
          <mxGeometry y="120" width="160" height="8" as="geometry" />
        </mxCell>
        <mxCell id="QxNiOy2woBjy3pgb3Xe6-19" value="- tipo: string" style="text;strokeColor=none;fillColor=none;align=left;verticalAlign=top;spacingLeft=4;spacingRight=4;overflow=hidden;rotatable=0;points=[[0,0.5],[1,0.5]];portConstraint=eastwest;whiteSpace=wrap;html=1;" vertex="1" parent="QxNiOy2woBjy3pgb3Xe6-13">
          <mxGeometry y="128" width="160" height="26" as="geometry" />
        </mxCell>
        <mxCell id="QxNiOy2woBjy3pgb3Xe6-22" value="Pedido" style="swimlane;fontStyle=1;align=center;verticalAlign=top;childLayout=stackLayout;horizontal=1;startSize=26;horizontalStack=0;resizeParent=1;resizeParentMax=0;resizeLast=0;collapsible=1;marginBottom=0;whiteSpace=wrap;html=1;" vertex="1" parent="WIyWlLk6GJQsqaUBKTNV-1">
          <mxGeometry x="60" y="-100" width="160" height="222" as="geometry">
            <mxRectangle x="60" y="-100" width="150" height="30" as="alternateBounds" />
          </mxGeometry>
        </mxCell>
        <mxCell id="QxNiOy2woBjy3pgb3Xe6-23" value="- id" style="text;strokeColor=none;fillColor=none;align=left;verticalAlign=top;spacingLeft=4;spacingRight=4;overflow=hidden;rotatable=0;points=[[0,0.5],[1,0.5]];portConstraint=eastwest;whiteSpace=wrap;html=1;" vertex="1" parent="QxNiOy2woBjy3pgb3Xe6-22">
          <mxGeometry y="26" width="160" height="26" as="geometry" />
        </mxCell>
        <mxCell id="QxNiOy2woBjy3pgb3Xe6-24" value="" style="line;strokeWidth=1;fillColor=none;align=left;verticalAlign=middle;spacingTop=-1;spacingLeft=3;spacingRight=3;rotatable=0;labelPosition=right;points=[];portConstraint=eastwest;strokeColor=inherit;" vertex="1" parent="QxNiOy2woBjy3pgb3Xe6-22">
          <mxGeometry y="52" width="160" height="8" as="geometry" />
        </mxCell>
        <mxCell id="QxNiOy2woBjy3pgb3Xe6-25" value="- mesa_id" style="text;strokeColor=none;fillColor=none;align=left;verticalAlign=top;spacingLeft=4;spacingRight=4;overflow=hidden;rotatable=0;points=[[0,0.5],[1,0.5]];portConstraint=eastwest;whiteSpace=wrap;html=1;" vertex="1" parent="QxNiOy2woBjy3pgb3Xe6-22">
          <mxGeometry y="60" width="160" height="26" as="geometry" />
        </mxCell>
        <mxCell id="QxNiOy2woBjy3pgb3Xe6-30" value="" style="line;strokeWidth=1;fillColor=none;align=left;verticalAlign=middle;spacingTop=-1;spacingLeft=3;spacingRight=3;rotatable=0;labelPosition=right;points=[];portConstraint=eastwest;strokeColor=inherit;" vertex="1" parent="QxNiOy2woBjy3pgb3Xe6-22">
          <mxGeometry y="86" width="160" height="8" as="geometry" />
        </mxCell>
        <mxCell id="QxNiOy2woBjy3pgb3Xe6-26" value="- prato_id" style="text;strokeColor=none;fillColor=none;align=left;verticalAlign=top;spacingLeft=4;spacingRight=4;overflow=hidden;rotatable=0;points=[[0,0.5],[1,0.5]];portConstraint=eastwest;whiteSpace=wrap;html=1;" vertex="1" parent="QxNiOy2woBjy3pgb3Xe6-22">
          <mxGeometry y="94" width="160" height="26" as="geometry" />
        </mxCell>
        <mxCell id="QxNiOy2woBjy3pgb3Xe6-31" value="" style="line;strokeWidth=1;fillColor=none;align=left;verticalAlign=middle;spacingTop=-1;spacingLeft=3;spacingRight=3;rotatable=0;labelPosition=right;points=[];portConstraint=eastwest;strokeColor=inherit;" vertex="1" parent="QxNiOy2woBjy3pgb3Xe6-22">
          <mxGeometry y="120" width="160" height="8" as="geometry" />
        </mxCell>
        <mxCell id="QxNiOy2woBjy3pgb3Xe6-27" value="- quantidade" style="text;strokeColor=none;fillColor=none;align=left;verticalAlign=top;spacingLeft=4;spacingRight=4;overflow=hidden;rotatable=0;points=[[0,0.5],[1,0.5]];portConstraint=eastwest;whiteSpace=wrap;html=1;" vertex="1" parent="QxNiOy2woBjy3pgb3Xe6-22">
          <mxGeometry y="128" width="160" height="26" as="geometry" />
        </mxCell>
        <mxCell id="QxNiOy2woBjy3pgb3Xe6-32" value="" style="line;strokeWidth=1;fillColor=none;align=left;verticalAlign=middle;spacingTop=-1;spacingLeft=3;spacingRight=3;rotatable=0;labelPosition=right;points=[];portConstraint=eastwest;strokeColor=inherit;" vertex="1" parent="QxNiOy2woBjy3pgb3Xe6-22">
          <mxGeometry y="154" width="160" height="8" as="geometry" />
        </mxCell>
        <mxCell id="QxNiOy2woBjy3pgb3Xe6-28" value="- entregue" style="text;strokeColor=none;fillColor=none;align=left;verticalAlign=top;spacingLeft=4;spacingRight=4;overflow=hidden;rotatable=0;points=[[0,0.5],[1,0.5]];portConstraint=eastwest;whiteSpace=wrap;html=1;" vertex="1" parent="QxNiOy2woBjy3pgb3Xe6-22">
          <mxGeometry y="162" width="160" height="26" as="geometry" />
        </mxCell>
        <mxCell id="QxNiOy2woBjy3pgb3Xe6-33" value="" style="line;strokeWidth=1;fillColor=none;align=left;verticalAlign=middle;spacingTop=-1;spacingLeft=3;spacingRight=3;rotatable=0;labelPosition=right;points=[];portConstraint=eastwest;strokeColor=inherit;" vertex="1" parent="QxNiOy2woBjy3pgb3Xe6-22">
          <mxGeometry y="188" width="160" height="8" as="geometry" />
        </mxCell>
        <mxCell id="QxNiOy2woBjy3pgb3Xe6-29" value="- data" style="text;strokeColor=none;fillColor=none;align=left;verticalAlign=top;spacingLeft=4;spacingRight=4;overflow=hidden;rotatable=0;points=[[0,0.5],[1,0.5]];portConstraint=eastwest;whiteSpace=wrap;html=1;" vertex="1" parent="QxNiOy2woBjy3pgb3Xe6-22">
          <mxGeometry y="196" width="160" height="26" as="geometry" />
        </mxCell>
        <mxCell id="QxNiOy2woBjy3pgb3Xe6-34" value="" style="endArrow=diamondThin;endFill=1;endSize=24;html=1;rounded=0;entryX=0.5;entryY=0;entryDx=0;entryDy=0;" edge="1" parent="WIyWlLk6GJQsqaUBKTNV-1" source="QxNiOy2woBjy3pgb3Xe6-13" target="QxNiOy2woBjy3pgb3Xe6-9">
          <mxGeometry width="160" relative="1" as="geometry">
            <mxPoint x="402" y="286" as="sourcePoint" />
            <mxPoint x="562" y="286" as="targetPoint" />
          </mxGeometry>
        </mxCell>
        <mxCell id="QxNiOy2woBjy3pgb3Xe6-35" value="«interface»&lt;br&gt;&lt;b&gt;Mediador&lt;/b&gt;" style="html=1;whiteSpace=wrap;" vertex="1" parent="WIyWlLk6GJQsqaUBKTNV-1">
          <mxGeometry x="345" y="238" width="110" height="50" as="geometry" />
        </mxCell>
        <mxCell id="QxNiOy2woBjy3pgb3Xe6-37" value="" style="endArrow=open;endFill=1;endSize=12;html=1;rounded=0;" edge="1" parent="WIyWlLk6GJQsqaUBKTNV-1" source="zkfFHV4jXpPFQw0GAbJ--13" target="QxNiOy2woBjy3pgb3Xe6-35">
          <mxGeometry width="160" relative="1" as="geometry">
            <mxPoint x="330" y="390" as="sourcePoint" />
            <mxPoint x="490" y="390" as="targetPoint" />
          </mxGeometry>
        </mxCell>
        <mxCell id="QxNiOy2woBjy3pgb3Xe6-38" value="" style="endArrow=open;endFill=1;endSize=12;html=1;rounded=0;entryX=1;entryY=0.5;entryDx=0;entryDy=0;" edge="1" parent="WIyWlLk6GJQsqaUBKTNV-1" source="QxNiOy2woBjy3pgb3Xe6-9" target="QxNiOy2woBjy3pgb3Xe6-35">
          <mxGeometry width="160" relative="1" as="geometry">
            <mxPoint x="240" y="273" as="sourcePoint" />
            <mxPoint x="355" y="273" as="targetPoint" />
          </mxGeometry>
        </mxCell>
        <mxCell id="QxNiOy2woBjy3pgb3Xe6-39" value="" style="endArrow=open;endFill=1;endSize=12;html=1;rounded=0;entryX=0.5;entryY=0;entryDx=0;entryDy=0;" edge="1" parent="WIyWlLk6GJQsqaUBKTNV-1" source="QxNiOy2woBjy3pgb3Xe6-13" target="QxNiOy2woBjy3pgb3Xe6-35">
          <mxGeometry width="160" relative="1" as="geometry">
            <mxPoint x="250" y="283" as="sourcePoint" />
            <mxPoint x="365" y="283" as="targetPoint" />
            <Array as="points">
              <mxPoint x="400" y="11" />
            </Array>
          </mxGeometry>
        </mxCell>
        <mxCell id="QxNiOy2woBjy3pgb3Xe6-40" value="" style="endArrow=open;endFill=1;endSize=12;html=1;rounded=0;" edge="1" parent="WIyWlLk6GJQsqaUBKTNV-1" source="QxNiOy2woBjy3pgb3Xe6-22" target="QxNiOy2woBjy3pgb3Xe6-35">
          <mxGeometry width="160" relative="1" as="geometry">
            <mxPoint x="260" y="293" as="sourcePoint" />
            <mxPoint x="375" y="293" as="targetPoint" />
            <Array as="points">
              <mxPoint x="400" y="11" />
            </Array>
          </mxGeometry>
        </mxCell>
        <mxCell id="QxNiOy2woBjy3pgb3Xe6-41" value="GerenciadorDePedidos" style="swimlane;fontStyle=1;align=center;verticalAlign=top;childLayout=stackLayout;horizontal=1;startSize=26;horizontalStack=0;resizeParent=1;resizeParentMax=0;resizeLast=0;collapsible=1;marginBottom=0;whiteSpace=wrap;html=1;" vertex="1" parent="WIyWlLk6GJQsqaUBKTNV-1">
          <mxGeometry x="320" y="400" width="160" height="60" as="geometry" />
        </mxCell>
        <mxCell id="QxNiOy2woBjy3pgb3Xe6-42" value="+ QueryMethods" style="text;strokeColor=none;fillColor=none;align=left;verticalAlign=top;spacingLeft=4;spacingRight=4;overflow=hidden;rotatable=0;points=[[0,0.5],[1,0.5]];portConstraint=eastwest;whiteSpace=wrap;html=1;" vertex="1" parent="QxNiOy2woBjy3pgb3Xe6-41">
          <mxGeometry y="26" width="160" height="26" as="geometry" />
        </mxCell>
        <mxCell id="QxNiOy2woBjy3pgb3Xe6-43" value="" style="line;strokeWidth=1;fillColor=none;align=left;verticalAlign=middle;spacingTop=-1;spacingLeft=3;spacingRight=3;rotatable=0;labelPosition=right;points=[];portConstraint=eastwest;strokeColor=inherit;" vertex="1" parent="QxNiOy2woBjy3pgb3Xe6-41">
          <mxGeometry y="52" width="160" height="8" as="geometry" />
        </mxCell>
        <mxCell id="QxNiOy2woBjy3pgb3Xe6-45" value="" style="endArrow=block;dashed=1;endFill=0;endSize=12;html=1;rounded=0;" edge="1" parent="WIyWlLk6GJQsqaUBKTNV-1" source="QxNiOy2woBjy3pgb3Xe6-41" target="QxNiOy2woBjy3pgb3Xe6-35">
          <mxGeometry width="160" relative="1" as="geometry">
            <mxPoint x="330" y="350" as="sourcePoint" />
            <mxPoint x="490" y="350" as="targetPoint" />
          </mxGeometry>
        </mxCell>
        <mxCell id="QxNiOy2woBjy3pgb3Xe6-46" value="" style="endArrow=diamondThin;endFill=1;endSize=24;html=1;rounded=0;startArrow=open;startFill=0;" edge="1" parent="WIyWlLk6GJQsqaUBKTNV-1" source="zkfFHV4jXpPFQw0GAbJ--13" target="QxNiOy2woBjy3pgb3Xe6-41">
          <mxGeometry width="160" relative="1" as="geometry">
            <mxPoint x="330" y="350" as="sourcePoint" />
            <mxPoint x="490" y="350" as="targetPoint" />
            <Array as="points">
              <mxPoint x="-180" y="263" />
              <mxPoint x="-180" y="430" />
            </Array>
          </mxGeometry>
        </mxCell>
        <mxCell id="QxNiOy2woBjy3pgb3Xe6-47" value="" style="endArrow=diamondThin;endFill=1;endSize=24;html=1;rounded=0;startArrow=open;startFill=0;" edge="1" parent="WIyWlLk6GJQsqaUBKTNV-1" source="QxNiOy2woBjy3pgb3Xe6-22" target="QxNiOy2woBjy3pgb3Xe6-41">
          <mxGeometry width="160" relative="1" as="geometry">
            <mxPoint x="40" y="273" as="sourcePoint" />
            <mxPoint x="330" y="443" as="targetPoint" />
            <Array as="points">
              <mxPoint x="-180" y="10" />
              <mxPoint x="-180" y="430" />
            </Array>
          </mxGeometry>
        </mxCell>
        <mxCell id="QxNiOy2woBjy3pgb3Xe6-48" value="" style="endArrow=diamondThin;endFill=1;endSize=24;html=1;rounded=0;startArrow=open;startFill=0;" edge="1" parent="WIyWlLk6GJQsqaUBKTNV-1" source="QxNiOy2woBjy3pgb3Xe6-9" target="QxNiOy2woBjy3pgb3Xe6-41">
          <mxGeometry width="160" relative="1" as="geometry">
            <mxPoint x="50" y="283" as="sourcePoint" />
            <mxPoint x="340" y="453" as="targetPoint" />
            <Array as="points">
              <mxPoint x="920" y="260" />
              <mxPoint x="920" y="433" />
            </Array>
          </mxGeometry>
        </mxCell>
        <mxCell id="QxNiOy2woBjy3pgb3Xe6-49" value="" style="endArrow=diamondThin;endFill=1;endSize=24;html=1;rounded=0;startArrow=open;startFill=0;" edge="1" parent="WIyWlLk6GJQsqaUBKTNV-1" source="QxNiOy2woBjy3pgb3Xe6-13" target="QxNiOy2woBjy3pgb3Xe6-41">
          <mxGeometry width="160" relative="1" as="geometry">
            <mxPoint x="60" y="293" as="sourcePoint" />
            <mxPoint x="350" y="463" as="targetPoint" />
            <Array as="points">
              <mxPoint x="920" y="10" />
              <mxPoint x="920" y="260" />
              <mxPoint x="920" y="433" />
            </Array>
          </mxGeometry>
        </mxCell>
      </root>
    </mxGraphModel>
  </diagram>
</mxfile>
